<?xml version="1.0" encoding="UTF-8"?>
<svg xmlns="http://www.w3.org/2000/svg" xmlns:xlink="http://www.w3.org/1999/xlink" width="325px" height="302px" viewBox="0 0 244 227" version="1.1">
<g id="surface1">
<path style=" stroke:none;fill-rule:nonzero;fill:rgb(0%,40.000001%,20.392157%);fill-opacity:1;" d="M 194.824219 116.558594 C 168.535156 130.703125 150.496094 135.085938 123.703125 136.558594 C 102.757812 137.527344 70.621094 133.644531 41.890625 123.882812 C 41.390625 123.378906 39.453125 122.910156 39.453125 124.851562 L 39.453125 126.792969 C 39.453125 131.171875 39.453125 140.4375 39.953125 144.351562 C 39.953125 147.261719 41.421875 147.761719 42.390625 147.761719 C 58.460938 154.585938 97.414062 168.734375 147.117188 156.527344 C 164.65625 152.613281 190.949219 137.996094 202.640625 128.730469 C 203.609375 127.261719 204.578125 126.292969 204.578125 125.320312 C 204.578125 121.910156 204.078125 116.054688 204.078125 115.085938 C 204.078125 113.144531 202.609375 112.644531 200.171875 113.613281 C 198.703125 114.585938 196.761719 115.554688 194.824219 116.558594 M 203.578125 39 L 163.65625 39 L 163.65625 0 L 139.804688 0 L 139.804688 102.878906 L 163.65625 102.878906 L 163.65625 63.882812 L 203.609375 63.882812 M 79.375 19.03125 L 79.375 39.03125 L 38.953125 39.03125 L 38.953125 63.914062 L 79.375 63.914062 L 79.375 83.410156 L 103.226562 83.410156 L 103.226562 19.03125 "/>
<path style=" stroke:none;fill-rule:nonzero;fill:rgb(0%,0%,0%);fill-opacity:1;" d="M 225.992188 189.203125 C 216.738281 189.203125 208.457031 197.496094 208.457031 208.230469 C 208.457031 218.464844 216.738281 226.761719 225.992188 226.761719 C 235.746094 226.761719 244 218.464844 244 208.230469 C 244 197.496094 235.714844 189.203125 225.992188 189.203125 Z M 225.992188 220.40625 C 221.617188 220.40625 217.238281 215.054688 217.238281 208.230469 C 217.238281 201.410156 221.617188 196.054688 225.992188 196.054688 C 231.339844 196.054688 235.246094 201.410156 235.246094 208.230469 C 235.246094 215.054688 231.339844 220.40625 225.992188 220.40625 Z M 202.609375 190.171875 L 191.886719 190.171875 L 184.570312 215.054688 L 177.757812 190.171875 L 166.5625 190.171875 L 165.09375 225.757812 L 172.410156 225.757812 L 173.878906 197.464844 L 180.695312 225.257812 L 181.664062 225.257812 L 181.664062 225.757812 L 187.007812 225.757812 L 195.761719 197.464844 L 196.730469 225.757812 L 204.046875 225.757812 M 143.679688 215.523438 L 159.75 215.523438 C 159.75 212.613281 160.71875 206.761719 157.308594 203.347656 C 153.902344 199.4375 144.648438 196.996094 138.804688 203.851562 C 132.957031 211.175781 136.363281 219.46875 139.304688 222.878906 C 143.679688 227.261719 149.527344 226.792969 153.902344 226.292969 C 155.839844 226.292969 158.28125 225.320312 158.28125 225.320312 L 158.28125 219.96875 C 158.28125 219.96875 150.496094 221.910156 147.085938 219.96875 C 143.679688 219 143.679688 217.527344 143.179688 215.585938 L 143.679688 215.585938 Z M 143.179688 210.171875 L 143.179688 209.671875 C 145.117188 202.347656 152.933594 204.320312 153.402344 210.171875 Z M 122.734375 188.230469 L 122.734375 203.347656 C 120.796875 200.90625 118.359375 199.4375 115.417969 199.4375 C 109.574219 199.4375 104.226562 205.289062 104.226562 213.082031 C 104.226562 220.875 109.105469 226.730469 114.949219 226.730469 C 117.859375 226.730469 120.796875 225.257812 122.734375 222.347656 L 122.734375 226.261719 L 131.019531 226.261719 L 131.019531 188.230469 Z M 117.390625 220.40625 C 113.980469 220.40625 111.542969 216.996094 111.542969 213.082031 C 111.542969 208.703125 114.449219 205.757812 117.390625 205.757812 C 120.796875 205.757812 122.734375 208.671875 122.734375 213.082031 C 122.734375 216.996094 120.296875 220.40625 117.390625 220.40625 Z M 100.320312 226.261719 L 89.597656 190.671875 L 85.21875 190.171875 L 83.28125 190.171875 L 78.90625 190.671875 L 68.183594 226.261719 L 76.464844 226.261719 L 84.25 194.085938 L 92.035156 226.261719 M 55.019531 190.671875 L 55.019531 203.851562 L 42.359375 203.851562 L 42.359375 190.671875 L 33.605469 190.671875 L 33.605469 226.261719 L 42.359375 226.261719 L 42.359375 210.640625 L 55.019531 210.640625 L 55.019531 226.261719 L 63.304688 226.261719 L 63.304688 190.671875 M 27.761719 218.464844 C 25.320312 219.4375 22.414062 219.9375 19.976562 219.9375 C 13.628906 219.9375 8.785156 215.054688 8.785156 208.230469 C 8.785156 200.90625 13.660156 196.054688 20.476562 196.054688 C 23.382812 196.054688 25.351562 196.558594 27.292969 197.527344 L 28.761719 191.675781 C 26.324219 190.703125 23.414062 189.734375 20.007812 189.734375 C 8.753906 190.171875 0 197.496094 0 208.199219 C 0 218.90625 7.785156 226.730469 18.507812 226.730469 C 21.914062 226.730469 25.320312 226.230469 28.261719 225.257812 "/>
</g>
</svg>
