<?xml version="1.0" encoding="UTF-8" standalone="no"?>
<svg enable-background="new 0 0 2500 2320" height="301.68179" viewBox="0 0 325 301.68179" width="325" xmlns="http://www.w3.org/2000/svg">
   <path d="m259.5004 155.0673c-35.0192 18.8213-59.0455 24.6509-94.7311 26.6079-27.8987 1.2908-70.7047-3.8726-108.9717-16.8641-.6664-.6664-3.248-1.291-3.248 1.2908v2.5816c0 5.8296 0 18.1551.6662 23.3601 0 3.8724 1.957 4.5387 3.248 4.5387 21.4029 9.0775 73.2863 27.8988 139.4939 11.6592 23.3601-5.205 58.3793-24.6509 73.9527-36.9764 1.2908-1.9571 2.5815-3.2478 2.5815-4.5388 0-4.5386-.6661-12.3253-.6661-13.6163 0-2.5816-1.9572-3.2478-5.205-1.9571-1.957 1.291-4.5388 2.5819-7.1204 3.9144m11.6591-103.1839h-53.1744v-51.8834h-31.7713v136.8706h31.7713v-51.8834h53.216m-165.4773-59.6701v26.6079h-53.8404v33.1038h53.8405v25.9416h31.7713v-85.6533" fill="#006634" stroke-width=".13001727"/>
   <path d="m301.0155 251.7137c-12.3256 0-23.3601 11.0346-23.3601 25.3172 0 13.6163 11.0345 24.6509 23.3601 24.6509 12.9915 0 23.9845-11.0346 23.9845-24.6509 0-14.2826-11.0346-25.3172-23.9845-25.3172zm0 41.5152c-5.8298 0-11.6593-7.1206-11.6593-16.198 0-9.0775 5.8295-16.1981 11.6593-16.1981 7.1204 0 12.3253 7.1206 12.3253 16.1981 0 9.0774-5.2049 16.198-12.3253 16.198zm-31.1467-40.2243h-14.2827l-9.7436 33.1037-9.0775-33.1037h-14.907l-1.9572 47.3448h9.7438l1.9571-37.6427 9.0774 36.9763h1.2908v.6662h7.1206l11.6591-37.6425 1.291 37.6425h9.7437m-80.4069-13.6163h21.4029c0-3.8724 1.2909-11.6591-3.2479-16.1979-4.5386-5.205-16.8641-8.453-24.6508.6662-7.7868 9.7438-3.2479 20.7784.6662 25.3172 5.8296 5.8296 13.6163 5.205 19.4459 4.5387 2.5815 0 5.8296-1.2908 5.8296-1.2908v-7.1206c0 0-10.3684 2.5816-14.9072 0-4.5386-1.2908-4.5386-3.2478-5.205-5.8296h.6664zm-.6664-7.1204v-.6663c2.5816-9.7436 12.9917-7.1204 13.6163.6663zm-27.2325-29.1896v20.1121c-2.5816-3.2478-5.8296-5.205-9.7437-5.205-7.7868 0-14.907 7.7867-14.907 18.1551 0 10.3684 6.4957 18.155 14.2824 18.155 3.8725 0 7.7867-1.9572 10.3683-5.8296v5.2048h11.0346v-50.5924zm-7.1204 42.806c-4.5386 0-7.7867-4.5388-7.7867-9.7438 0-5.8296 3.8725-9.7438 7.7867-9.7438 4.5388 0 7.1205 3.8726 7.1205 9.7438-.0001 5.2049-3.2479 9.7438-7.1205 9.7438zm-22.7355 7.7866l-14.2826-47.3448-5.8296-.6662h-2.5816l-5.8296.6662-14.2825 47.3448h11.0345l10.3684-42.8059 10.3683 42.8059m-49.3016-47.3447v17.5304h-16.8641v-17.5304h-11.6592v47.3448h11.6592v-20.7785h16.8641v20.7785h11.0346v-47.3448m-47.3446 36.9763c-3.2479 1.2908-7.1204 1.957-10.3684 1.957-8.4529 0-14.9071-6.4958-14.9071-15.5732 0-9.7437 6.4958-16.1981 15.5733-16.1981 3.8726 0 6.4958.6663 9.0776 1.9572l1.957-7.7867c-3.2479-1.2909-7.1204-2.5817-11.6592-2.5817-14.9903.583-26.6495 10.3267-26.6495 24.5674 0 14.2411 10.3684 24.6511 24.6509 24.6511 4.5388 0 9.0775-.6662 12.9917-1.9572" stroke-width=".13001727"/>
</svg>
